Coordinates
version=1
nRows=9
nColumns=24
inDegrees=yes

Units are S.I. units (second, meters, Newtons, ...)
Angles are in degrees.

endheader
time	pelvis_tilt	pelvis_list	pelvis_rotation	pelvis_tx	pelvis_ty	pelvis_tz	hip_flexion_r	hip_adduction_r	hip_rotation_r	knee_angle_r	ankle_angle_r	subtalar_angle_r	mtp_angle_r	hip_flexion_l	hip_adduction_l	hip_rotation_l	knee_angle_l	ankle_angle_l	subtalar_angle_l	mtp_angle_l	lumbar_extension	lumbar_bending	lumbar_rotation
      1.99000000	      6.39002602	     -0.70797067	     -3.97221867	      1.11501840	      0.89255844	     -0.00076236	    -11.04575007	      0.83045849	     -0.51112202	    -51.87593066	     -3.33050509	     -6.13790959	     55.30366768	     16.54627155	      4.37012332	     -2.33745518	    -25.41241660	     11.37662237	     -6.84734201	     27.84249065	    -19.00030523	     -2.08708999	      2.35684124
      1.99500000	      6.37129096	     -0.28748163	     -4.02486314	      1.12247769	      0.89294423	     -0.00079879	     -9.82862328	      0.38435646	     -0.49300164	    -53.93165549	     -3.61528877	     -7.19810714	     53.30945156	     16.13225928	      4.83321436	     -2.49794368	    -25.55426195	     11.98701704	     -6.60884648	     27.07636299	    -18.96362254	     -2.55559621	      2.23079506
      2.00000000	      6.42294566	      0.14678935	     -4.15859249	      1.12996715	      0.89356413	     -0.00074473	     -8.69112244	     -0.09685013	     -0.39328116	    -55.86017145	     -3.82831246	     -8.30302435	     52.66294669	     15.53913242	      5.30825885	     -2.72622370	    -25.48318919	     12.41537359	     -6.65817309	     26.88803579	    -18.99080314	     -3.06262260	      2.16716258
      2.00500000	      6.44526612	      0.52058111	     -4.16825997	      1.13740456	      0.89415921	     -0.00076435	     -7.54210154	     -0.48229121	     -0.40558746	    -57.71943104	     -3.48258988	     -8.90338158	     49.04909768	     14.99124910	      5.72569762	     -2.86868232	    -25.46620504	     13.10854016	     -6.22727147	     25.49808027	    -19.00788861	     -3.47503880	      1.97918604
      2.01000000	      6.50044869	      0.84834629	     -4.22983863	      1.14482572	      0.89493286	     -0.00070790	     -6.44202282	     -0.81965031	     -0.35250530	    -59.40660711	     -3.31702028	     -9.87423172	     48.64493870	     14.34226837	      6.08997129	     -3.03776671	    -25.30210625	     13.57045343	     -6.04643170	     25.38796662	    -19.05330026	     -3.85186492	      1.87482719
      2.01500000	      6.54725706	      1.11182530	     -4.23892636	      1.15222105	      0.89575823	     -0.00062275	     -5.35635166	     -1.06408738	     -0.33060693	    -60.99830152	     -2.64971382	    -10.38940029	     45.97259555	     13.68949830	      6.37468044	     -3.20782826	    -25.14866227	     14.25337149	     -5.49511616	     24.25087490	    -19.09969464	     -4.14953260	      1.68555369
      2.02000000	      6.65364631	      1.38945034	     -4.25121200	      1.15958470	      0.89674309	     -0.00060728	     -4.34134963	     -1.35313966	     -0.34120354	    -62.45292232	     -2.03981921	    -11.04135166	     45.83231765	     12.91659232	      6.70918500	     -3.28978429	    -24.85356575	     14.59231748	     -5.37174847	     24.21346376	    -19.21798893	     -4.45879751	      1.51194975
      2.02500000	      6.74044141	      1.58013253	     -4.33921118	      1.16692168	      0.89778337	     -0.00039751	     -3.29641128	     -1.51708623	     -0.22475157	    -63.83287877	     -1.12545950	    -11.34870055	     43.32810050	     12.13278805	      6.91269377	     -3.49344531	    -24.52655389	     15.20124484	     -4.93819497	     22.92629996	    -19.30865284	     -4.69969435	      1.46402023
      2.03000000	      6.83285539	      1.75717657	     -4.40749915	      1.17425781	      0.89887603	     -0.00022716	     -2.27366146	     -1.67867168	     -0.15429377	    -65.07182913	     -0.28028545	    -11.76597793	     43.14054626	     11.32218473	      7.11686524	     -3.63986089	    -24.15330286	     15.60650112	     -4.67009309	     22.84031722	    -19.40309848	     -4.91644102	      1.37982585
